# Blender v2.63 (sub 0) OBJ File: ''
# www.blender.org
o Cylinder
v -2.090016 1.304821 0.891016
v -2.140057 3.316487 1.087811
v -1.894926 1.304821 0.910231
v -1.944967 3.316487 1.107026
v -1.707332 1.304821 0.967136
v -1.018271 3.250746 1.449960
v -1.534446 1.304821 1.059546
v -0.961676 3.250746 1.480210
v -1.382909 1.304821 1.183909
v -0.912069 3.250746 1.520921
v -1.258546 1.304821 1.335446
v -0.871359 3.250746 1.570527
v -1.166136 1.304821 1.508332
v -0.841108 3.250746 1.627123
v -1.109231 1.304821 1.695925
v -0.822479 3.250746 1.688532
v -1.090016 1.304821 1.891016
v -0.816189 3.250746 1.752396
v -1.109231 1.304821 2.086106
v -0.822479 3.250746 1.816260
v -1.166136 1.304821 2.273699
v -0.841108 3.250746 1.877669
v -1.258546 1.304821 2.446586
v -1.428354 3.304821 2.446586
v -1.382909 1.304821 2.598123
v -1.552717 3.304821 2.598123
v -1.534446 1.304821 2.722486
v -1.704254 3.304821 2.722486
v -1.707333 1.304821 2.814896
v -1.877141 3.304821 2.814896
v -1.894926 1.304821 2.871801
v -1.894926 3.304821 2.871801
v -2.090016 1.304821 2.891016
v -2.090016 3.304821 2.891016
v -2.285107 1.304821 2.871801
v -2.285107 3.304821 2.871801
v -2.472700 1.304821 2.814895
v -2.472700 3.304821 2.814895
v -2.645586 1.304821 2.722485
v -2.645586 3.304821 2.722485
v -2.797123 1.304821 2.598122
v -2.797123 3.304821 2.598122
v -2.921486 1.304821 2.446586
v -2.921486 3.304821 2.446586
v -3.013896 1.304821 2.273699
v -3.013896 3.304821 2.273699
v -3.070801 1.304821 2.086105
v -3.070801 3.304821 2.086105
v -3.090016 1.304821 1.891015
v -3.090016 3.304821 1.891015
v -3.070801 1.304821 1.695925
v -3.070801 3.304821 1.695925
v -3.013895 1.304821 1.508331
v -3.013895 3.304821 1.508331
v -2.921485 1.304821 1.335445
v -2.921485 3.304821 1.335445
v -2.797122 1.304821 1.183908
v -2.797122 3.304821 1.183908
v -2.645585 1.304821 1.059546
v -2.645585 3.304821 1.059546
v -2.472698 1.304821 0.967136
v -2.472698 3.304821 0.967136
v -2.285105 1.304821 0.910230
v -2.285105 3.304821 0.910230
v -2.090016 4.812616 0.891016
v -1.894926 4.812616 0.910231
v -1.707332 4.812616 0.967137
v -1.534446 4.812616 1.059546
v -1.382909 4.812616 1.183909
v -1.258546 4.812616 1.335446
v -1.166136 4.812616 1.508333
v -1.109231 4.812616 1.695926
v -1.090016 4.812616 1.891016
v -1.109231 4.812616 2.086106
v -1.166136 4.812616 2.273699
v -1.258546 4.812616 2.446586
v -1.382909 4.812616 2.598123
v -1.534446 4.812616 2.722486
v -1.707333 4.812616 2.814896
v -1.894926 4.812616 2.871801
v -2.090016 4.812616 2.891016
v -2.285107 4.812616 2.871801
v -2.472700 4.812616 2.814895
v -2.645586 4.812616 2.722486
v -2.797123 4.812616 2.598123
v -2.921486 4.812616 2.446586
v -3.013896 4.812616 2.273699
v -3.070801 4.812616 2.086106
v -3.090016 4.812616 1.891015
v -3.070801 4.812616 1.695925
v -3.013895 4.812616 1.508332
v -2.921485 4.812616 1.335445
v -2.797122 4.812616 1.183908
v -2.645585 4.812616 1.059546
v -2.472698 4.812616 0.967136
v -2.285105 4.812616 0.910231
vn 0.097533 0.099301 -0.990266
vn 0.341363 0.105275 -0.934017
vn 0.470763 0.051829 -0.880736
vn 0.634272 -0.019619 -0.772861
vn 0.770719 -0.076941 -0.632513
vn 0.875791 -0.117707 -0.468120
vn 0.947420 -0.140704 -0.287397
vn 0.984600 -0.145459 -0.096975
vn 0.986491 -0.131896 0.097160
vn 0.952119 -0.100253 0.288822
vn 0.738168 0.038559 0.673514
vn 0.771351 0.065491 0.633032
vn 0.633475 0.053785 0.771892
vn 0.471020 0.039991 0.881215
vn 0.484602 0.020572 0.874493
vn 0.098018 0.000000 0.995185
vn -0.098018 0.000000 0.995185
vn -0.290286 0.000000 0.956940
vn -0.471397 0.000000 0.881921
vn -0.634393 0.000000 0.773010
vn -0.773011 0.000000 0.634393
vn -0.881922 0.000000 0.471396
vn -0.956941 0.000000 0.290283
vn -0.995185 0.000000 0.098017
vn -0.995185 0.000000 -0.098018
vn -0.956940 0.000000 -0.290286
vn -0.881921 0.000000 -0.471398
vn -0.773009 0.000000 -0.634395
vn -0.634393 0.000000 -0.773011
vn -0.471395 0.000000 -0.881922
vn -0.290283 0.000000 -0.956941
vn 0.420166 0.049690 -0.906086
vn 0.000000 -1.000000 -0.000000
vn -0.000000 1.000000 0.000000
vn 0.942283 0.174351 -0.285839
vn 0.470734 -0.053014 0.880681
vn 0.327154 -0.139352 -0.934640
vn -0.773011 -0.000000 0.634392
vn 0.981786 0.163544 0.096697
vn 0.098017 -0.000000 0.995185
vn 0.634204 0.024440 -0.772779
vn 0.097147 -0.132989 -0.986345
vn 0.734566 -0.050157 0.676681
vn 0.872459 0.146093 -0.466339
vn 0.632780 -0.071264 0.771045
vn 0.423028 -0.066250 -0.903691
vn 0.978898 0.180177 -0.096413
vn 0.484525 -0.027284 0.874352
vn 0.470415 -0.064525 -0.880083
vn 0.949488 0.124559 0.288024
vn -0.634392 0.000000 -0.773011
vn -0.098017 -0.000000 0.995185
vn 0.769462 0.095704 -0.631482
vn 0.770098 -0.086728 0.632003
s off
f 1//1 2//1 4//1
f 1//1 4//1 3//1
f 3//2 4//2 6//2
f 3//2 6//2 5//2
f 5//3 6//3 8//3
f 5//3 8//3 7//3
f 7//4 8//4 10//4
f 7//4 10//4 9//4
f 9//5 10//5 12//5
f 9//5 12//5 11//5
f 11//6 12//6 14//6
f 11//6 14//6 13//6
f 13//7 14//7 16//7
f 13//7 16//7 15//7
f 15//8 16//8 18//8
f 15//8 18//8 17//8
f 17//9 18//9 20//9
f 17//9 20//9 19//9
f 19//10 20//10 22//10
f 19//10 22//10 21//10
f 21//11 22//11 24//11
f 21//11 24//11 23//11
f 23//12 24//12 26//12
f 23//12 26//12 25//12
f 25//13 26//13 28//13
f 25//13 28//13 27//13
f 27//14 28//14 30//14
f 27//14 30//14 29//14
f 29//15 30//15 32//15
f 29//15 32//15 31//15
f 31//16 32//16 34//16
f 31//16 34//16 33//16
f 33//17 34//17 36//17
f 33//17 36//17 35//17
f 35//18 36//18 38//18
f 35//18 38//18 37//18
f 37//19 38//19 40//19
f 37//19 40//19 39//19
f 39//20 40//20 42//20
f 39//20 42//20 41//20
f 41//21 42//21 44//21
f 41//21 44//21 43//21
f 43//22 44//22 46//22
f 43//22 46//22 45//22
f 45//23 46//23 48//23
f 45//23 48//23 47//23
f 47//24 48//24 50//24
f 47//24 50//24 49//24
f 49//25 50//25 52//25
f 49//25 52//25 51//25
f 51//26 52//26 54//26
f 51//26 54//26 53//26
f 53//27 54//27 56//27
f 53//27 56//27 55//27
f 55//28 56//28 58//28
f 55//28 58//28 57//28
f 57//29 58//29 60//29
f 57//29 60//29 59//29
f 59//30 60//30 62//30
f 59//30 62//30 61//30
f 64//31 62//31 95//31
f 64//31 95//31 96//31
f 2//32 1//32 63//32
f 2//32 63//32 64//32
f 61//31 62//31 64//31
f 61//31 64//31 63//31
f 1//33 3//33 63//33
f 3//33 61//33 63//33
f 3//33 5//33 61//33
f 5//33 59//33 61//33
f 5//33 7//33 59//33
f 7//33 57//33 59//33
f 7//33 9//33 57//33
f 9//33 55//33 57//33
f 9//33 11//33 55//33
f 11//33 53//33 55//33
f 11//33 13//33 53//33
f 13//33 51//33 53//33
f 13//33 15//33 51//33
f 15//33 49//33 51//33
f 15//33 17//33 49//33
f 17//33 47//33 49//33
f 17//33 19//33 47//33
f 19//33 45//33 47//33
f 19//33 21//33 45//33
f 21//33 43//33 45//33
f 21//33 23//33 43//33
f 23//33 41//33 43//33
f 23//33 25//33 41//33
f 25//33 39//33 41//33
f 25//33 27//33 39//33
f 27//33 37//33 39//33
f 27//33 29//33 37//33
f 29//33 35//33 37//33
f 29//33 31//33 35//33
f 31//33 33//33 35//33
f 66//34 65//34 96//34
f 66//34 96//34 95//34
f 66//34 95//34 67//34
f 95//34 94//34 67//34
f 94//34 68//34 67//34
f 94//34 93//34 68//34
f 93//34 69//34 68//34
f 93//34 92//34 69//34
f 92//34 70//34 69//34
f 92//34 91//34 70//34
f 91//34 71//34 70//34
f 91//34 90//34 71//34
f 90//34 72//34 71//34
f 90//34 89//34 72//34
f 89//34 73//34 72//34
f 89//34 88//34 73//34
f 88//34 74//34 73//34
f 88//34 87//34 74//34
f 87//34 75//34 74//34
f 87//34 86//34 75//34
f 86//34 76//34 75//34
f 86//34 85//34 76//34
f 85//34 77//34 76//34
f 85//34 84//34 77//34
f 84//34 78//34 77//34
f 84//34 83//34 78//34
f 83//34 79//34 78//34
f 83//34 82//34 79//34
f 82//34 80//34 79//34
f 82//34 81//34 80//34
f 40//19 38//19 83//19
f 40//19 83//19 84//19
f 16//35 14//35 71//35
f 16//35 71//35 72//35
f 54//26 52//26 90//26
f 54//26 90//26 91//26
f 30//36 28//36 78//36
f 30//36 78//36 79//36
f 6//37 4//37 66//37
f 6//37 66//37 67//37
f 44//38 42//38 85//38
f 44//38 85//38 86//38
f 20//39 18//39 73//39
f 20//39 73//39 74//39
f 58//28 56//28 92//28
f 58//28 92//28 93//28
f 34//40 32//40 80//40
f 34//40 80//40 81//40
f 10//41 8//41 68//41
f 10//41 68//41 69//41
f 48//23 46//23 87//23
f 48//23 87//23 88//23
f 4//42 2//42 65//42
f 4//42 65//42 66//42
f 24//43 22//43 75//43
f 24//43 75//43 76//43
f 62//30 60//30 94//30
f 62//30 94//30 95//30
f 38//18 36//18 82//18
f 38//18 82//18 83//18
f 14//44 12//44 70//44
f 14//44 70//44 71//44
f 52//25 50//25 89//25
f 52//25 89//25 90//25
f 28//45 26//45 77//45
f 28//45 77//45 78//45
f 2//46 64//46 96//46
f 2//46 96//46 65//46
f 42//20 40//20 84//20
f 42//20 84//20 85//20
f 18//47 16//47 72//47
f 18//47 72//47 73//47
f 56//27 54//27 91//27
f 56//27 91//27 92//27
f 32//48 30//48 79//48
f 32//48 79//48 80//48
f 8//49 6//49 67//49
f 8//49 67//49 68//49
f 46//22 44//22 86//22
f 46//22 86//22 87//22
f 22//50 20//50 74//50
f 22//50 74//50 75//50
f 60//51 58//51 93//51
f 60//51 93//51 94//51
f 36//52 34//52 81//52
f 36//52 81//52 82//52
f 12//53 10//53 69//53
f 12//53 69//53 70//53
f 50//24 48//24 88//24
f 50//24 88//24 89//24
f 26//54 24//54 76//54
f 26//54 76//54 77//54
